<svg width="15" height="14" viewBox="0 0 15 14" fill="none" xmlns="http://www.w3.org/2000/svg">
<path d="M0 1.5C0 0.671875 0.629883 0 1.40625 0H5.15625C5.93262 0 6.5625 0.671875 6.5625 1.5V5C6.5625 5.82812 5.93262 6.5 5.15625 6.5H1.40625C0.629883 6.5 0 5.82812 0 5V1.5ZM0 9C0 8.17188 0.629883 7.5 1.40625 7.5H5.15625C5.93262 7.5 6.5625 8.17188 6.5625 9V12.5C6.5625 13.3281 5.93262 14 5.15625 14H1.40625C0.629883 14 0 13.3281 0 12.5V9ZM8.90625 0H13.5938C14.3701 0 15 0.671875 15 1.5V2.5C15 3.32812 14.3701 4 13.5938 4H8.90625C8.12988 4 7.5 3.32812 7.5 2.5V1.5C7.5 0.671875 8.12988 0 8.90625 0ZM7.5 6.5C7.5 5.67188 8.12988 5 8.90625 5H13.5938C14.3701 5 15 5.67188 15 6.5V7.5C15 8.32812 14.3701 9 13.5938 9H8.90625C8.12988 9 7.5 8.32812 7.5 7.5V6.5ZM8.90625 10H13.5938C14.3701 10 15 10.6719 15 11.5V12.5C15 13.3281 14.3701 14 13.5938 14H8.90625C8.12988 14 7.5 13.3281 7.5 12.5V11.5C7.5 10.6719 8.12988 10 8.90625 10Z" fill="#6B7280"/>
</svg>
