<svg width="17" height="16" viewBox="0 0 17 16" fill="none" xmlns="http://www.w3.org/2000/svg">
<g clip-path="url(#clip0_3_75)">
<path d="M5.99776 8.99467C8.20546 8.99467 9.99516 7.20497 9.99516 4.99727C9.99516 2.78957 8.20546 0.999878 5.99776 0.999878C3.79006 0.999878 2.00037 2.78957 2.00037 4.99727C2.00037 7.20497 3.79006 8.99467 5.99776 8.99467Z" stroke="#FF9900" stroke-width="2" stroke-linecap="round" stroke-linejoin="round"/>
<path d="M12.7203 6.57617C13.3501 6.81097 13.9105 7.20079 14.3497 7.70957C14.789 8.21835 15.0928 8.82967 15.2332 9.48699C15.3735 10.1443 15.3459 10.8264 15.1528 11.4702C14.9596 12.114 14.6073 12.6987 14.1283 13.1703C13.6494 13.6418 13.0592 13.985 12.4125 14.168C11.7658 14.3511 11.0833 14.3681 10.4283 14.2175C9.77321 14.0669 9.1667 13.7536 8.66484 13.3065C8.16297 12.8593 7.78195 12.2929 7.55701 11.6595" stroke="#FF9900" stroke-width="2" stroke-linecap="round" stroke-linejoin="round"/>
<path d="M5.3324 3.66479H5.99863V6.32973" stroke="#FF9900" stroke-width="2" stroke-linecap="round" stroke-linejoin="round"/>
<path d="M11.8015 8.91467L12.2678 9.3877L10.389 11.2665" stroke="#FF9900" stroke-width="2" stroke-linecap="round" stroke-linejoin="round"/>
</g>
<defs>
<clipPath id="clip0_3_75">
<rect width="15.9896" height="15.9896" fill="white" transform="translate(0.770874 -0.00708008)"/>
</clipPath>
</defs>
</svg>
